<svg
  viewBox="0 0 24 24"
  fill="none"
  xmlns="http://www.w3.org/2000/svg"
>
  <path
    d="M11.5283 2.01029C10.4925 2.06834 9.57458 2.24793 8.65757 2.57356C5.95281 3.5341 3.78591 5.61755 2.7138 8.28603C2.64668 8.45292 2.50882 8.83206 2.48705 8.90734C2.48251 8.92458 2.45984 8.99895 2.43625 9.07333C2.22854 9.73818 2.08977 10.481 2.02537 11.2747C2.00269 11.5559 2.00269 12.4448 2.02537 12.7259C2.08977 13.5196 2.22854 14.2624 2.43625 14.9273C2.45984 15.0017 2.48251 15.0761 2.48705 15.0933C2.50882 15.1686 2.64668 15.5477 2.7138 15.7146C3.57004 17.8461 5.12741 19.6148 7.13829 20.7395C8.28024 21.379 9.5646 21.7899 10.8753 21.9359C11.3106 21.9849 11.4322 21.9912 12 21.9912C12.5678 21.9912 12.6875 21.9849 13.1247 21.9368C13.727 21.8697 14.3846 21.7336 14.927 21.564C15.0013 21.5405 15.0757 21.5178 15.0929 21.5132C15.1755 21.4897 15.5546 21.3509 15.7415 21.2747C16.79 20.8511 17.7533 20.2561 18.6068 19.5051C19.4539 18.7595 20.1832 17.8561 20.7392 16.862C21.3787 15.721 21.7895 14.4348 21.9356 13.125C21.9846 12.6888 21.9909 12.5681 21.9909 12.0003C21.9909 11.4325 21.9846 11.3119 21.9356 10.8756C21.6317 8.14363 20.2041 5.65383 17.9909 3.99487C16.5678 2.9273 14.8861 2.25973 13.1247 2.06381C12.7211 2.01936 12.585 2.01211 12.0725 2.00938C11.8059 2.00848 11.561 2.00848 11.5283 2.01029ZM12.6802 3.02435C13.6181 3.10145 14.4762 3.29827 15.3016 3.62571C16.7129 4.18535 17.9446 5.07696 18.9161 6.24158C20.0607 7.61301 20.7691 9.29193 20.9514 11.0661C20.9877 11.418 20.9932 11.5341 20.9932 12.0003C20.9932 12.4665 20.9877 12.5826 20.9514 12.9346C20.7401 14.9872 19.8295 16.8974 18.3637 18.364C16.897 19.8307 14.9877 20.7405 12.9342 20.9518C12.5787 20.989 12.4671 20.9935 11.9909 20.9935C11.5029 20.9926 11.3514 20.9854 10.9787 20.9427C9.58092 20.7849 8.24306 20.3005 7.0612 19.5241C4.89249 18.101 3.43852 15.8035 3.08478 13.2429C3.02401 12.8058 3.00677 12.5273 3.00677 12.0003C3.00677 11.5423 3.01312 11.4044 3.0485 11.0615C3.29067 8.72957 4.43172 6.59351 6.24124 5.08421C7.19997 4.28331 8.34555 3.67832 9.53648 3.34181C10.1968 3.15496 10.8018 3.0561 11.5782 3.00802C11.7251 2.99895 12.5143 3.01075 12.6802 3.02435ZM16.7011 8.72594C16.6322 8.73864 16.5605 8.76766 16.5016 8.80757C16.4689 8.82934 15.2063 10.0856 13.2245 12.0674L9.99997 15.2928L6.79816 12.0928L6.72106 12.0556C6.48977 11.9432 6.22401 12.0148 6.08251 12.228C6.03262 12.3033 6.01086 12.3722 6.00632 12.4729C6.00179 12.579 6.01358 12.6425 6.05621 12.7287C6.08705 12.7912 6.1578 12.8638 7.87208 14.579C8.85711 15.5649 9.6807 16.3831 9.71244 16.4058C9.74328 16.4284 9.79861 16.4575 9.83489 16.4702C9.89113 16.491 9.9138 16.4946 10.0045 16.4937C10.0952 16.4937 10.117 16.4901 10.1714 16.4692C10.2059 16.4556 10.2585 16.4266 10.2893 16.4049C10.3192 16.3822 11.8857 14.8221 13.7696 12.9373C16.9514 9.7527 17.1963 9.50598 17.2226 9.45156C17.297 9.29827 17.2988 9.14952 17.2272 8.99805C17.17 8.87832 17.0412 8.77129 16.9115 8.73592C16.8571 8.7214 16.7546 8.71687 16.7011 8.72594Z"
    fill="#212121"
  />
</svg>
