<svg
  viewBox="0 0 24 24"
  fill="none"
  xmlns="http://www.w3.org/2000/svg"
>
  <path
    d="M11.5284 2.01029C10.4925 2.06834 9.57464 2.24793 8.65763 2.57356C5.95287 3.5341 3.78597 5.61755 2.71387 8.28603C2.64674 8.45292 2.50888 8.83206 2.48711 8.90734C2.48257 8.92458 2.4599 8.99895 2.43631 9.07333C2.2286 9.73818 2.08983 10.481 2.02543 11.2747C2.00275 11.5559 2.00275 12.4448 2.02543 12.7259C2.08983 13.5196 2.2286 14.2624 2.43631 14.9273C2.4599 15.0017 2.48257 15.0761 2.48711 15.0933C2.50888 15.1686 2.64674 15.5477 2.71387 15.7146C3.5701 17.8461 5.12747 19.6148 7.13835 20.7395C8.2803 21.379 9.56466 21.7899 10.8753 21.9359C11.3107 21.9849 11.4322 21.9912 12 21.9912C12.5678 21.9912 12.6876 21.9849 13.1247 21.9368C13.727 21.8697 14.3846 21.7336 14.927 21.564C15.0014 21.5405 15.0758 21.5178 15.093 21.5132C15.1683 21.4915 15.5474 21.3536 15.7143 21.2865C17.2835 20.6561 18.6604 19.6457 19.7406 18.3305C20.0046 18.0094 20.3565 17.5105 20.5687 17.1568C21.3134 15.9178 21.7769 14.55 21.9356 13.125C21.9846 12.6888 21.991 12.5681 21.991 12.0003C21.991 11.4325 21.9846 11.3119 21.9356 10.8756C21.6318 8.14363 20.2041 5.65383 17.991 3.99487C16.5678 2.9273 14.8862 2.25973 13.1247 2.06381C12.7211 2.01936 12.5851 2.01211 12.0726 2.00938C11.8059 2.00848 11.561 2.00848 11.5284 2.01029ZM17.1365 8.86925L17.4876 9.22027L10 16.7078L5.79142 12.4992L6.4989 11.7917L10 15.2928L13.3878 11.9051C15.2508 10.042 16.7774 8.51732 16.7801 8.51732C16.7828 8.51732 16.9424 8.67515 17.1365 8.86925Z"
    fill="#212121"
  />
</svg>
