<svg
  viewBox="0 0 16 16"
  fill="none"
  xmlns="http://www.w3.org/2000/svg"
>
  <path
    d="M7.85186 1.00224C6.27182 1.03247 4.73531 1.60753 3.51928 2.6234C2.8505 3.18153 2.296 3.85273 1.8691 4.62008C1.7409 4.84986 1.59034 5.17095 1.48452 5.43943C1.08542 6.44986 0.928809 7.55946 1.031 8.65938C1.16161 10.061 1.71853 11.398 2.62314 12.481C3.25262 13.235 4.02662 13.8452 4.90099 14.2769C6.06683 14.8526 7.35602 15.0902 8.65912 14.9693C10.0608 14.8387 11.3977 14.2818 12.4807 13.3771C13.2348 12.7477 13.8449 11.9737 14.2767 11.0993C14.6673 10.3078 14.9019 9.46482 14.9751 8.58984C15.0059 8.21131 15.0059 7.77956 14.9745 7.40768C14.8608 6.06588 14.3655 4.79181 13.5444 3.72816C12.9578 2.96868 12.2268 2.34041 11.3802 1.86936C11.2526 1.79801 10.9599 1.65288 10.8269 1.59483C10.0699 1.26346 9.3019 1.0748 8.47166 1.01615C8.37371 1.00889 8.02299 0.997401 7.96675 0.999215C7.9468 0.99982 7.8954 1.00103 7.85186 1.00224ZM7.02042 11.2867L3.89117 8.15749L4.59865 7.45001L7.02042 9.87178L11.099 5.79317L11.8065 6.50065L7.02042 11.2867Z"
    fill="#212121"
  />
</svg>
