<svg
  viewBox="0 0 24 24"
  fill="none"
  xmlns="http://www.w3.org/2000/svg"
>
  <path
    d="M11.5284 2.01029C10.4925 2.06834 9.57464 2.24793 8.65763 2.57356C5.95287 3.5341 3.78597 5.61755 2.71387 8.28603C2.64674 8.45292 2.50888 8.83206 2.48711 8.90734C2.48257 8.92458 2.4599 8.99895 2.43631 9.07333C2.2286 9.73818 2.08983 10.481 2.02543 11.2747C2.00275 11.5559 2.00275 12.4448 2.02543 12.7259C2.08983 13.5196 2.2286 14.2624 2.43631 14.9273C2.4599 15.0017 2.48257 15.0761 2.48711 15.0933C2.50888 15.1686 2.64674 15.5477 2.71387 15.7146C3.5701 17.8461 5.12747 19.6148 7.13835 20.7395C8.2803 21.379 9.56466 21.7899 10.8753 21.9359C11.3107 21.9849 11.4322 21.9912 12 21.9912C12.5678 21.9912 12.6876 21.9849 13.1247 21.9368C13.727 21.8697 14.3846 21.7336 14.927 21.564C15.0014 21.5405 15.0758 21.5178 15.093 21.5132C15.1755 21.4897 15.5547 21.3509 15.7415 21.2747C16.7901 20.8511 17.7533 20.2561 18.6068 19.5051C19.454 18.7595 20.1833 17.8561 20.7393 16.862C21.3787 15.721 21.7896 14.4348 21.9356 13.125C21.9846 12.6888 21.991 12.5681 21.991 12.0003C21.991 11.4325 21.9846 11.3119 21.9356 10.8756C21.6318 8.14363 20.2041 5.65383 17.991 3.99487C16.5678 2.9273 14.8862 2.25973 13.1247 2.06381C12.7211 2.01936 12.5851 2.01211 12.0726 2.00938C11.8059 2.00848 11.561 2.00848 11.5284 2.01029ZM12.6803 3.02435C13.6182 3.10145 14.4762 3.29827 15.3016 3.62571C16.713 4.18535 17.9447 5.07696 18.9161 6.24158C20.0608 7.61301 20.7692 9.29193 20.9515 11.0661C20.9878 11.418 20.9932 11.5341 20.9932 12.0003C20.9932 12.4665 20.9878 12.5826 20.9515 12.9346C20.7402 14.9872 19.8295 16.8974 18.3638 18.364C16.8971 19.8307 14.9878 20.7405 12.9343 20.9518C12.5787 20.989 12.4672 20.9935 11.991 20.9935C11.503 20.9926 11.3515 20.9854 10.9787 20.9427C9.58099 20.7849 8.24312 20.3005 7.06126 19.5241C4.89255 18.101 3.43858 15.8035 3.08484 13.2429C3.02407 12.8058 3.00684 12.5273 3.00684 12.0003C3.00684 11.5423 3.01318 11.4044 3.04856 11.0615C3.29074 8.72957 4.43178 6.59351 6.2413 5.08421C7.20003 4.28331 8.34561 3.67832 9.53654 3.34181C10.1969 3.15496 10.8018 3.0561 11.5783 3.00802C11.7252 2.99895 12.5143 3.01075 12.6803 3.02435ZM13.3878 11.9051L10 15.2928L8.254 13.5468C7.29346 12.5863 6.50343 11.8008 6.4989 11.8008C6.49346 11.8008 6.33291 11.9577 6.14062 12.15L5.79142 12.4992L10 16.7078L17.4876 9.22027L17.1365 8.86925C16.9424 8.67515 16.7828 8.51732 16.7801 8.51732C16.7774 8.51732 15.2508 10.042 13.3878 11.9051Z"
    fill="#212121"
  />
</svg>
