<svg
  viewBox="0 0 20 20"
  fill="none"
  xmlns="http://www.w3.org/2000/svg"
>
  <path
    d="M9.63342 2.00723C8.27817 2.07676 7.03705 2.45091 5.89495 3.13345C4.76796 3.80692 3.80727 4.76762 3.1338 5.8946C2.53894 6.88931 2.17764 7.96339 2.04914 9.11909C2.01286 9.44033 2.00757 9.56051 2.00757 9.99967C2.00757 10.5023 2.02117 10.717 2.08315 11.1486C2.35904 13.0911 3.36055 14.8787 4.88512 16.1501C6.13909 17.1947 7.68708 17.8311 9.31218 17.9694C9.6765 18.0004 10.2615 18.005 10.5934 17.9777C11.3983 17.9135 12.1285 17.751 12.8572 17.4736C14.5208 16.8394 15.9501 15.6384 16.8662 14.1047C17.5125 13.0231 17.8745 11.8772 17.9796 10.5817C17.9985 10.3489 17.9985 9.65046 17.9796 9.41766C17.9131 8.59528 17.7521 7.87344 17.4739 7.14253C16.839 5.47813 15.6387 4.04955 14.1051 3.13345C13.0272 2.48946 11.8753 2.12438 10.5934 2.02083C10.4505 2.00949 9.77779 2.00042 9.63342 2.00723ZM14.3515 7.6429C14.5442 7.83565 14.7014 7.99589 14.7014 8.00042C14.7014 8.01025 8.64551 14.0662 8.63569 14.0662C8.63115 14.0662 7.76494 13.203 6.70976 12.1478L4.79215 10.2302L5.50266 9.5197L8.63569 12.6527L11.3152 9.97321C12.7891 8.49929 13.9962 7.2937 13.9985 7.2937C14.0008 7.2937 14.1595 7.45092 14.3515 7.6429Z"
    fill="#212121"
  />
</svg>
