<svg
  viewBox="0 0 20 20"
  fill="none"
  xmlns="http://www.w3.org/2000/svg"
>
  <path
    d="M9.63342 2.00723C8.27817 2.07676 7.03705 2.45091 5.89495 3.13345C4.76796 3.80692 3.80727 4.76762 3.1338 5.8946C2.53894 6.88931 2.17764 7.96339 2.04914 9.11909C2.01286 9.44033 2.00757 9.56051 2.00757 9.99967C2.00757 10.5023 2.02117 10.717 2.08315 11.1486C2.35904 13.0911 3.36055 14.8787 4.88512 16.1501C6.13909 17.1947 7.68708 17.8311 9.31218 17.9694C9.6765 18.0004 10.2615 18.005 10.5934 17.9777C11.3983 17.9135 12.1285 17.751 12.8572 17.4736C14.5208 16.8394 15.9501 15.6384 16.8662 14.1047C17.5125 13.0231 17.8745 11.8772 17.9796 10.5817C17.9985 10.3489 17.9985 9.65046 17.9796 9.41766C17.9131 8.59528 17.7521 7.87344 17.4739 7.14253C16.839 5.47813 15.6387 4.04955 14.1051 3.13345C13.0272 2.48946 11.8753 2.12438 10.5934 2.02083C10.4505 2.00949 9.77779 2.00042 9.63342 2.00723ZM14.0945 7.50912C14.2842 7.54464 14.4445 7.69959 14.486 7.88705C14.5132 8.01025 14.4913 8.15084 14.4286 8.25968C14.3923 8.32242 8.95768 13.757 8.89495 13.7933C8.87151 13.8069 8.82767 13.8266 8.79668 13.8379C8.7468 13.8561 8.73168 13.8583 8.63569 13.8583C8.54498 13.8583 8.52306 13.8553 8.48074 13.8409C8.35602 13.7963 8.45504 13.8916 6.71203 12.1471C5.47242 10.9075 5.09222 10.5227 5.07257 10.4887C4.99699 10.3587 4.98036 10.206 5.02647 10.0662C5.06577 9.94903 5.16781 9.83414 5.27892 9.78047C5.46789 9.68977 5.67348 9.71849 5.83523 9.85832C5.86622 9.88553 6.50946 10.525 7.2638 11.2801L8.63569 12.6527L11.164 10.1259C13.1149 8.17654 13.7022 7.59377 13.7362 7.57412C13.8511 7.50685 13.9698 7.48569 14.0945 7.50912Z"
    fill="#212121"
  />
</svg>
