<svg
  viewBox="0 0 20 20"
  fill="none"
  xmlns="http://www.w3.org/2000/svg"
>
  <path
    d="M9.63342 2.00723C8.27817 2.07676 7.03705 2.45091 5.89495 3.13345C4.76796 3.80692 3.80727 4.76762 3.1338 5.8946C2.53894 6.88931 2.17764 7.96339 2.04914 9.11909C2.01286 9.44033 2.00757 9.56051 2.00757 9.99967C2.00757 10.5023 2.02117 10.717 2.08315 11.1486C2.35904 13.0911 3.36055 14.8787 4.88512 16.1501C6.13909 17.1947 7.68708 17.8311 9.31218 17.9694C9.6765 18.0004 10.2615 18.005 10.5934 17.9777C11.3983 17.9135 12.1285 17.751 12.8572 17.4736C14.5208 16.8394 15.9501 15.6384 16.8662 14.1047C17.5125 13.0231 17.8745 11.8772 17.9796 10.5817C17.9985 10.3489 17.9985 9.65046 17.9796 9.41766C17.9131 8.59528 17.7521 7.87344 17.4739 7.14253C16.839 5.47813 15.6387 4.04955 14.1051 3.13345C13.0272 2.48946 11.8753 2.12438 10.5934 2.02083C10.4505 2.00949 9.77779 2.00042 9.63342 2.00723ZM10.4875 3.01478C11.1164 3.06543 11.6296 3.16596 12.1882 3.34887C12.7158 3.52045 13.2683 3.78198 13.7453 4.08508C14.192 4.36777 14.5593 4.66407 14.9479 5.05182C15.3432 5.44789 15.6448 5.82507 15.9327 6.28311C16.8443 7.73361 17.1882 9.47132 16.901 11.1758C16.7861 11.8583 16.5798 12.491 16.2691 13.1138C15.9879 13.6754 15.6727 14.1463 15.2578 14.6217C15.1217 14.7774 14.7778 15.1214 14.6221 15.2574C14.1466 15.6724 13.6712 15.9914 13.1141 16.2688C12.8783 16.3859 12.6977 16.4653 12.4717 16.5507C11.0658 17.0813 9.50417 17.1433 8.05368 16.726C7.42858 16.5454 6.7982 16.2604 6.2434 15.9067C5.7982 15.6233 5.43916 15.3338 5.05216 14.9475C4.6508 14.5454 4.34846 14.1667 4.05746 13.6996C2.99018 11.9906 2.71505 9.8946 3.30311 7.95658C3.47998 7.37155 3.7536 6.77669 4.08542 6.25439C4.36811 5.80844 4.66365 5.44033 5.05216 5.05182C5.45428 4.65046 5.83297 4.34812 6.30009 4.05711C7.29857 3.43353 8.42783 3.07752 9.62208 3.00874C9.76872 2.99967 10.356 3.0042 10.4875 3.01478ZM11.3228 9.97321C9.84884 11.4471 8.64022 12.6527 8.63569 12.6527C8.63115 12.6527 7.92367 11.949 7.0635 11.0881L5.49888 9.52348L5.14967 9.87268C4.95693 10.0654 4.79971 10.2257 4.79971 10.2302C4.79971 10.24 8.62586 14.0662 8.63569 14.0662C8.64551 14.0662 14.7014 8.01025 14.7014 8.00042C14.7014 7.99589 14.5442 7.83565 14.3515 7.6429L14.0023 7.2937L11.3228 9.97321Z"
    fill="#212121"
  />
</svg>
