<svg
  viewBox="0 0 16 16"
  fill="none"
  xmlns="http://www.w3.org/2000/svg"
>
  <path
    d="M7.85186 1.00224C6.27182 1.03247 4.73531 1.60753 3.51928 2.6234C2.8505 3.18153 2.296 3.85273 1.8691 4.62008C1.7409 4.84986 1.59034 5.17095 1.48452 5.43943C1.08542 6.44986 0.928809 7.55946 1.031 8.65938C1.16161 10.061 1.71853 11.398 2.62314 12.481C3.25262 13.235 4.02662 13.8452 4.90099 14.2769C6.06683 14.8526 7.35602 15.0902 8.65912 14.9693C10.0608 14.8387 11.3977 14.2818 12.4807 13.3771C13.2348 12.7477 13.8449 11.9737 14.2767 11.0993C14.6673 10.3078 14.9019 9.46482 14.9751 8.58984C15.0059 8.21131 15.0059 7.77956 14.9745 7.40768C14.8608 6.06588 14.3655 4.79181 13.5444 3.72816C12.9578 2.96868 12.2268 2.34041 11.3802 1.86936C11.2526 1.79801 10.9599 1.65288 10.8269 1.59483C10.0699 1.26346 9.3019 1.0748 8.47166 1.01615C8.37371 1.00889 8.02299 0.997401 7.96675 0.999215C7.9468 0.99982 7.8954 1.00103 7.85186 1.00224ZM8.45352 2.0163C8.51823 2.02174 8.62042 2.03141 8.68028 2.03807C10.2132 2.21161 11.6172 2.96989 12.6107 4.16112C13.3739 5.07541 13.8461 6.19468 13.9677 7.37745C13.9918 7.61206 13.9955 7.68946 13.9955 8.00027C13.9955 8.31108 13.9918 8.38848 13.9677 8.6231C13.811 10.1475 13.0727 11.554 11.9039 12.5566C10.9775 13.3511 9.83342 13.8434 8.62284 13.9679C8.3858 13.9927 8.31142 13.9957 7.99396 13.9957C7.66864 13.9951 7.56766 13.9903 7.31913 13.9619C6.38792 13.8567 5.4954 13.5338 4.70749 13.0161C4.10281 12.6195 3.56887 12.1103 3.14317 11.5238C2.52276 10.6694 2.1412 9.67465 2.03236 8.62612C2.00878 8.39755 2.00455 8.30564 2.00455 8.00027C2.00455 7.69491 2.00878 7.60299 2.03236 7.37442C2.19079 5.8494 2.9279 4.44593 4.09616 3.44396C4.6948 2.93058 5.39684 2.53572 6.14665 2.29203C6.52155 2.17049 6.92548 2.08281 7.31974 2.03807C7.41225 2.02779 7.57854 2.01448 7.71883 2.00541C7.81679 1.99937 8.34287 2.00723 8.45352 2.0163ZM11.0361 6.00481C10.9593 6.01569 10.8892 6.0423 10.8178 6.08825C10.7961 6.10216 10.1182 6.77518 8.9022 7.9906L7.02042 9.87178L5.96343 8.81539C5.1858 8.03776 4.89676 7.75296 4.86834 7.73482C4.82541 7.707 4.75526 7.67858 4.70145 7.66709C4.68149 7.66286 4.63251 7.65923 4.5926 7.65983C4.53274 7.65983 4.51097 7.66286 4.46683 7.67616C4.3211 7.7197 4.21044 7.81342 4.14937 7.94585C4.11309 8.02325 4.10341 8.0686 4.10402 8.15749C4.10402 8.27057 4.13183 8.35885 4.19291 8.44411C4.20802 8.46467 4.78368 9.04457 5.47363 9.7327C6.42964 10.6881 6.73561 10.9892 6.76161 11.005C6.80394 11.0291 6.85473 11.0503 6.90613 11.0642C6.96539 11.0799 7.08814 11.0787 7.14861 11.0612C7.20666 11.0449 7.25262 11.0243 7.29676 10.9959C7.33727 10.9699 11.4534 6.85983 11.4993 6.79997C11.5362 6.7516 11.5707 6.67722 11.5864 6.61191C11.5973 6.56717 11.5985 6.5454 11.5961 6.48251C11.5931 6.39785 11.5834 6.35553 11.5519 6.28962C11.5005 6.17956 11.411 6.09128 11.304 6.04411C11.2254 6.00965 11.1178 5.99392 11.0361 6.00481Z"
    fill="#212121"
  />
</svg>
