<svg
  viewBox="0 0 24 24"
  fill="none"
  xmlns="http://www.w3.org/2000/svg"
>
  <path
    d="M11.5283 2.01029C10.4925 2.06834 9.57458 2.24793 8.65757 2.57356C5.95281 3.5341 3.78591 5.61755 2.7138 8.28603C2.64668 8.45292 2.50882 8.83206 2.48705 8.90734C2.48251 8.92458 2.45984 8.99895 2.43625 9.07333C2.22854 9.73818 2.08977 10.481 2.02537 11.2747C2.00269 11.5559 2.00269 12.4448 2.02537 12.7259C2.08977 13.5196 2.22854 14.2624 2.43625 14.9273C2.45984 15.0017 2.48251 15.0761 2.48705 15.0933C2.50882 15.1686 2.64668 15.5477 2.7138 15.7146C3.57004 17.8461 5.12741 19.6148 7.13829 20.7395C8.28024 21.379 9.5646 21.7899 10.8753 21.9359C11.3106 21.9849 11.4322 21.9912 12 21.9912C12.5678 21.9912 12.6875 21.9849 13.1247 21.9368C13.727 21.8697 14.3846 21.7336 14.927 21.564C15.0013 21.5405 15.0757 21.5178 15.0929 21.5132C15.1682 21.4915 15.5474 21.3536 15.7143 21.2865C17.2834 20.6561 18.6603 19.6457 19.7406 18.3305C20.0045 18.0094 20.3564 17.5105 20.5687 17.1568C21.3134 15.9178 21.7768 14.55 21.9356 13.125C21.9846 12.6888 21.9909 12.5681 21.9909 12.0003C21.9909 11.4325 21.9846 11.3119 21.9356 10.8756C21.6317 8.14363 20.2041 5.65383 17.9909 3.99487C16.5678 2.9273 14.8861 2.25973 13.1247 2.06381C12.7211 2.01936 12.585 2.01211 12.0725 2.00938C11.8059 2.00848 11.561 2.00848 11.5283 2.01029ZM16.8843 8.73047C17.0666 8.76857 17.2181 8.9146 17.2653 9.0951C17.2834 9.16313 17.2825 9.2756 17.2644 9.34635C17.229 9.4824 17.4866 9.21755 13.7424 12.9636C10.3075 16.3985 10.2902 16.4157 10.2222 16.4475C10.0698 16.5182 9.92378 16.5173 9.76868 16.4439C9.71335 16.4175 9.58637 16.2915 7.90836 14.6144C6.49612 13.2039 6.09884 12.8021 6.07344 12.7586C6.02265 12.6733 6.00269 12.5999 6.00269 12.4992C6.0036 12.325 6.07888 12.1817 6.22038 12.0883C6.31471 12.0248 6.38002 12.0058 6.49884 12.0058C6.61584 12.0049 6.68841 12.0257 6.77367 12.0819C6.80451 12.1037 7.45848 12.7504 8.41267 13.7046L9.99997 15.2928L13.2471 12.0475C16.3301 8.96539 16.497 8.80032 16.556 8.7722C16.6657 8.71959 16.77 8.70598 16.8843 8.73047Z"
    fill="#212121"
  />
</svg>
