<svg
  viewBox="0 0 24 24"
  fill="none"
  xmlns="http://www.w3.org/2000/svg"
>
  <path
    d="M4.37462 4.7666C4.21317 4.81195 4.07984 4.93712 4.02542 5.09585C4.00909 5.14483 4.00455 5.17567 4.00455 5.25186C4.00546 5.36161 4.02814 5.44052 4.08437 5.52488C4.10342 5.55299 5.71068 7.1666 7.91567 9.37068L11.7143 13.1675L11.7869 13.2002C11.9529 13.2754 12.1261 13.2627 12.2767 13.1648C12.3021 13.1485 14.0272 11.4287 16.1188 9.33621C19.6871 5.76615 19.9175 5.53395 19.9438 5.47771C19.9855 5.39064 20.0027 5.30719 19.9973 5.22011C19.9828 5.00243 19.8295 4.82011 19.6163 4.76569C19.4939 4.73395 19.3306 4.76297 19.2218 4.83553C19.1982 4.85095 17.5637 6.47907 15.59 8.45277L12 12.041L8.40637 8.44823C6.12791 6.17068 4.79458 4.84551 4.76555 4.82737C4.68845 4.7793 4.62315 4.76025 4.51703 4.75662C4.45172 4.7539 4.40727 4.75753 4.37462 4.7666ZM4.39458 10.763C4.20773 10.8047 4.05807 10.9525 4.01362 11.1394C3.98732 11.2537 4.00002 11.3562 4.05625 11.4741L4.09254 11.5512L11.6962 19.1548L11.7705 19.1911C11.8658 19.2373 11.9284 19.251 12.0318 19.2446C12.1234 19.2401 12.1932 19.2174 12.2721 19.1684C12.3057 19.1466 13.5347 17.924 16.1152 15.3444L19.9075 11.5512L19.9438 11.4741C20 11.3571 20.0118 11.2637 19.9864 11.1448C19.9492 10.9689 19.815 10.8247 19.6354 10.7693C19.6036 10.7593 19.5565 10.7539 19.4966 10.7548C19.3987 10.7548 19.3279 10.7729 19.2472 10.8183C19.2209 10.8337 17.9492 12.0981 15.6036 14.4437L12 18.0455L8.3973 14.4437C6.05081 12.0981 4.77916 10.8337 4.75285 10.8183C4.64673 10.7584 4.50886 10.7376 4.39458 10.763Z"
    fill="#212121"
  />
</svg>
