<svg
  viewBox="0 0 16 16"
  fill="none"
  xmlns="http://www.w3.org/2000/svg"
>
  <path
    d="M7.92922 3.0055C7.85363 3.01759 7.78168 3.04662 7.71274 3.09258C7.68855 3.1083 6.91516 3.87746 5.42763 5.36378C4.19105 6.59976 3.15824 7.63437 3.13285 7.6634C3.07843 7.72508 3.04275 7.78857 3.01977 7.86476C3.00586 7.91253 3.00344 7.92946 3.00344 8.00081C3.00344 8.07156 3.00586 8.0897 3.01977 8.13566C3.05605 8.2572 3.1262 8.35214 3.22778 8.41865C3.31123 8.47307 3.39891 8.49908 3.5011 8.49847C3.60692 8.49847 3.71758 8.46279 3.79316 8.40535C3.80707 8.39446 4.75945 7.44571 5.90957 6.2962L7.99997 4.20641L10.091 6.2962C11.2405 7.44571 12.1923 8.39386 12.2056 8.40414C12.289 8.46582 12.3888 8.49787 12.4988 8.49847C12.601 8.49908 12.6893 8.47307 12.7722 8.41865C12.8749 8.35093 12.9439 8.2572 12.9802 8.13687C12.9941 8.0891 12.9965 8.07217 12.9965 8.00081C12.9965 7.92946 12.9941 7.91253 12.9802 7.86476C12.9572 7.78857 12.9215 7.72508 12.8671 7.6634C12.8417 7.63437 11.8089 6.59976 10.5723 5.36378C9.08477 3.87746 8.31138 3.1083 8.28719 3.09258C8.23338 3.0569 8.19407 3.03815 8.13542 3.02122C8.07676 3.00429 7.98304 2.99703 7.92922 3.0055ZM7.93164 6.75576C7.87661 6.76302 7.80768 6.7866 7.75205 6.81744C7.70972 6.84042 7.54585 7.00308 5.41312 9.134C4.15114 10.3948 3.10745 11.4427 3.09294 11.4626C3.05787 11.5116 3.03852 11.5515 3.01977 11.615C3.00586 11.6604 3.00344 11.6797 3.00344 11.7468C3.00284 11.8388 3.01251 11.8829 3.0488 11.9615C3.12499 12.126 3.28523 12.2354 3.46905 12.2493C3.56641 12.2566 3.68372 12.2264 3.76777 12.1725C3.79679 12.1544 4.3398 11.615 5.90352 10.0519L7.99997 7.95546L10.097 10.0519C11.6601 11.615 12.2031 12.1544 12.2322 12.1725C12.4837 12.3334 12.8254 12.233 12.9511 11.9615C12.9874 11.8829 12.9971 11.8388 12.9965 11.7468C12.9965 11.6797 12.9941 11.6604 12.9802 11.615C12.9614 11.5515 12.9421 11.5116 12.907 11.4626C12.8925 11.4427 11.8488 10.3948 10.5868 9.134C8.45409 7.00308 8.29022 6.84042 8.24789 6.81744C8.18923 6.78479 8.12453 6.76363 8.06044 6.75576C8.00299 6.74851 7.99029 6.74851 7.93164 6.75576Z"
    fill="#212121"
  />
</svg>
