<svg
  viewBox="0 0 20 20"
  fill="none"
  xmlns="http://www.w3.org/2000/svg"
>
  <path
    d="M4.4467 4.75418C4.31442 4.76627 4.17988 4.84262 4.10127 4.94919C3.9758 5.12002 3.96824 5.34677 4.08162 5.52062C4.10203 5.55161 4.99772 6.45184 6.91004 8.3634C9.5631 11.015 9.71201 11.1623 9.7634 11.1888C9.91306 11.2651 10.0869 11.2651 10.2366 11.1888C10.288 11.1623 10.4369 11.015 13.0899 8.3634C15.0023 6.45184 15.8979 5.55161 15.9184 5.52062C16.0794 5.27421 15.9879 4.93483 15.7256 4.80558C15.644 4.76552 15.5896 4.75267 15.4989 4.75267C15.39 4.75267 15.3054 4.77837 15.2177 4.83733C15.198 4.85018 14.0159 6.02629 12.5911 7.45108L9.99999 10.0407L7.4021 7.44428C5.3953 5.43899 4.79364 4.84186 4.75963 4.82221C4.66439 4.76703 4.56083 4.74435 4.4467 4.75418ZM4.37792 9.2659C4.19651 9.31352 4.05819 9.45335 4.01284 9.63627C3.99545 9.70505 4.00074 9.82523 4.02418 9.89704C4.0665 10.0286 3.85637 9.81238 6.89719 12.8524C9.06121 15.0172 9.70369 15.6552 9.73771 15.6748C9.79817 15.7103 9.86696 15.7338 9.93876 15.7436C10.0453 15.758 10.1617 15.733 10.2623 15.6748C10.2963 15.6552 10.9388 15.0172 13.1028 12.8524C16.1436 9.81238 15.9335 10.0286 15.9766 9.89704C15.9932 9.8464 15.9962 9.82296 15.9962 9.74965C15.9962 9.67633 15.9932 9.6529 15.9766 9.60225C15.9093 9.39666 15.7369 9.26363 15.5246 9.25229C15.4323 9.24776 15.359 9.26363 15.2736 9.3052L15.2116 9.33544L9.99999 14.5456L7.39379 11.9409C4.92516 9.473 4.78532 9.33468 4.73393 9.30823C4.62281 9.25154 4.49205 9.23642 4.37792 9.2659Z"
    fill="#212121"
  />
</svg>
