<svg
  viewBox="0 0 16 16"
  fill="none"
  xmlns="http://www.w3.org/2000/svg"
>
  <path
    d="M3.43035 3.75454C3.26467 3.77873 3.11894 3.88758 3.0488 4.03875C3.01251 4.11736 3.00284 4.1615 3.00344 4.25341C3.00344 4.32053 3.00586 4.33988 3.01977 4.38523C3.03852 4.44872 3.05787 4.48863 3.09294 4.53761C3.10745 4.55757 4.15114 5.60549 5.41312 6.86626C7.54585 8.99717 7.70972 9.15984 7.75205 9.18281C7.90987 9.26989 8.09007 9.26989 8.24789 9.18281C8.29022 9.15984 8.45409 8.99717 10.5868 6.86626C11.8488 5.60549 12.8925 4.55757 12.907 4.53761C12.9421 4.48863 12.9614 4.44872 12.9802 4.38523C12.9941 4.33988 12.9965 4.32053 12.9965 4.25341C12.9971 4.1615 12.9874 4.11736 12.9511 4.03875C12.858 3.83739 12.6361 3.71947 12.4214 3.75696C12.3531 3.76906 12.2836 3.79506 12.2322 3.82771C12.2031 3.84585 11.6601 4.38523 10.097 5.94835L7.99997 8.04479L5.90352 5.94835C4.3398 4.38523 3.79679 3.84585 3.76777 3.82771C3.67223 3.76664 3.54162 3.73822 3.43035 3.75454ZM3.43579 7.5036C3.23685 7.53141 3.07843 7.66807 3.01977 7.86339C3.00586 7.91116 3.00344 7.92809 3.00344 7.99944C3.00344 8.07019 3.00586 8.08833 3.01977 8.13429C3.03791 8.19415 3.05605 8.23346 3.09173 8.28667C3.12499 8.33686 7.66255 12.8744 7.71274 12.9077C7.76595 12.9434 7.80526 12.9615 7.86512 12.9796C7.91108 12.9935 7.92922 12.996 7.99997 12.996C8.07072 12.996 8.08886 12.9935 8.13481 12.9796C8.19468 12.9615 8.23398 12.9434 8.28719 12.9077C8.31138 12.892 9.08477 12.1228 10.5723 10.6365C11.8089 9.4005 12.8417 8.36588 12.8671 8.33686C12.9215 8.27518 12.9572 8.21169 12.9802 8.1355C12.9941 8.08773 12.9965 8.0708 12.9965 7.99944C12.9965 7.92809 12.9941 7.91116 12.9802 7.86339C12.9251 7.68138 12.7824 7.54835 12.5986 7.50904C12.5418 7.49695 12.4444 7.49997 12.3815 7.51509C12.3241 7.529 12.2479 7.56407 12.2068 7.59491C12.1929 7.60579 11.2405 8.55454 10.091 9.70405L7.99997 11.7938L5.90957 9.70405C4.75945 8.55454 3.80707 7.60579 3.79316 7.59491C3.70367 7.52658 3.55129 7.48788 3.43579 7.5036Z"
    fill="#212121"
  />
</svg>
