<svg
  viewBox="0 0 16 16"
  fill="none"
  xmlns="http://www.w3.org/2000/svg"
>
  <path
    d="M3.39527 4.14769L3.04456 4.4984L7.99996 9.45381L12.9554 4.4984L12.6028 4.14648L12.2509 3.79395L7.99996 8.04489L5.8757 5.92063C4.70805 4.75298 3.74902 3.79697 3.74902 3.79697C3.74902 3.79697 3.58817 3.95479 3.39527 4.14769ZM3.39648 7.89553C3.2048 8.08722 3.04758 8.24746 3.04758 8.25048C3.04758 8.25411 4.16202 9.37097 5.52377 10.7327L7.99996 13.2089L10.4762 10.7327C11.8379 9.37097 12.9523 8.25351 12.9523 8.25048C12.9523 8.24686 12.7945 8.08661 12.6016 7.89372L12.2509 7.543L7.99996 11.7939L5.8757 9.66968C4.70805 8.50203 3.74902 7.54602 3.74902 7.54602C3.74902 7.54602 3.58877 7.70324 3.39648 7.89553Z"
    fill="#212121"
  />
</svg>
