<svg
  viewBox="0 0 24 24"
  fill="none"
  xmlns="http://www.w3.org/2000/svg"
>
  <path
    d="M11.8739 4.76574C11.8476 4.773 11.7959 4.79477 11.7606 4.81291C11.6998 4.84375 11.4866 5.05509 7.8939 8.64692L4.09254 12.4483L4.05625 12.5254C4.00002 12.6433 3.98732 12.7458 4.01362 12.8601C4.0363 12.9535 4.07893 13.0306 4.14514 13.0968C4.30841 13.2601 4.5524 13.2945 4.75285 13.1812C4.77916 13.1657 6.05081 11.9013 8.3973 9.55577L12 5.95395L15.6036 9.55577C17.9492 11.9013 19.2209 13.1657 19.2472 13.1812C19.3279 13.2265 19.3987 13.2447 19.4966 13.2447C19.5565 13.2456 19.6036 13.2401 19.6354 13.2301C19.815 13.1748 19.9492 13.0306 19.9864 12.8546C20.0118 12.7358 20 12.6424 19.9438 12.5254L19.9075 12.4483L16.1152 8.65509C13.5365 6.0764 12.3057 4.85282 12.2721 4.83105C12.186 4.77754 12.1243 4.75939 12.0182 4.75577C11.9519 4.75305 11.9084 4.75667 11.8739 4.76574ZM11.9093 10.7576C11.8821 10.7621 11.8268 10.7812 11.7869 10.7993L11.7143 10.832L7.91567 14.6288C5.71068 16.8329 4.10342 18.4465 4.08437 18.4746C4.02814 18.5589 4.00546 18.6379 4.00455 18.7476C4.00455 18.8238 4.00909 18.8546 4.02542 18.9036C4.08165 19.0669 4.2168 19.1911 4.38369 19.2338C4.5007 19.2646 4.65943 19.2383 4.76555 19.1721C4.79458 19.154 6.12791 17.8288 8.40637 15.5512L12 11.9585L15.59 15.5467C17.5637 17.5204 19.1982 19.1485 19.2218 19.1639C19.3306 19.2365 19.4939 19.2655 19.6163 19.2338C19.7832 19.1911 19.9184 19.0669 19.9746 18.9036C19.9909 18.8546 19.9955 18.8238 19.9955 18.7476C19.9946 18.6379 19.9719 18.5589 19.9157 18.4746C19.8966 18.4465 18.2894 16.8329 16.0844 14.6288C12.6413 11.1884 12.2803 10.8301 12.2313 10.8066C12.2014 10.793 12.1587 10.7757 12.137 10.7694C12.0835 10.7521 11.9701 10.7467 11.9093 10.7576Z"
    fill="#212121"
  />
</svg>
