<svg
  viewBox="0 0 20 20"
  fill="none"
  xmlns="http://www.w3.org/2000/svg"
>
  <path
    d="M9.92588 4.25639C9.86692 4.26546 9.79361 4.29192 9.73767 4.32442C9.70366 4.34407 9.06042 4.98277 6.89716 7.14679C3.85634 10.1869 4.06647 9.97068 4.02339 10.1022C4.00751 10.1528 4.00373 10.177 4.00373 10.2496C4.00373 10.3237 4.00676 10.3456 4.02339 10.397C4.09141 10.6026 4.26299 10.7356 4.47539 10.7469C4.5676 10.7515 4.64092 10.7356 4.72634 10.694L4.78832 10.6638L9.99996 5.45367L15.2116 10.6638L15.2736 10.694C15.359 10.7356 15.4323 10.7515 15.5245 10.7469C15.7369 10.7356 15.9093 10.6026 15.9765 10.397C15.9932 10.3463 15.9962 10.3229 15.9962 10.2496C15.9962 10.1763 15.9932 10.1528 15.9765 10.1022C15.9334 9.97068 16.1383 10.1823 13.1443 7.18534C11.6288 5.66909 10.3635 4.40605 10.3325 4.37884C10.2176 4.27983 10.0687 4.23447 9.92588 4.25639ZM9.87297 8.76811C9.84274 8.77642 9.79361 8.79532 9.76337 8.81044C9.71197 8.83689 9.56534 8.98202 6.91001 11.6358C4.99769 13.5474 4.102 14.4476 4.08159 14.4786C3.92059 14.725 4.01205 15.0644 4.27433 15.1937C4.35596 15.2337 4.41039 15.2466 4.50109 15.2466C4.60993 15.2466 4.69459 15.2209 4.78227 15.1619C4.80192 15.1491 5.98408 13.9729 7.40963 12.5482L9.99996 9.95859L12.591 12.5482C14.0158 13.9729 15.198 15.1491 15.2176 15.1619C15.3053 15.2209 15.39 15.2466 15.4988 15.2466C15.5895 15.2466 15.6439 15.2337 15.7256 15.1937C15.9879 15.0644 16.0793 14.725 15.9183 14.4786C15.8979 14.4476 15.0022 13.5474 13.0899 11.6358C10.4368 8.98429 10.2879 8.83689 10.2365 8.81044C10.1254 8.75375 9.98937 8.73788 9.87297 8.76811Z"
    fill="#212121"
  />
</svg>
