<svg
  viewBox="0 0 16 16"
  fill="none"
  xmlns="http://www.w3.org/2000/svg"
>
  <path
    d="M5.52196 5.26893C4.16141 6.62947 3.04758 7.74633 3.04758 7.74935C3.04758 7.75298 3.2054 7.91322 3.3983 8.10611L3.74902 8.45683L7.99996 4.20589L12.2509 8.45683L12.6016 8.10611C12.7945 7.91322 12.9523 7.75298 12.9523 7.74935C12.9523 7.7433 8.00601 2.79395 7.99996 2.79395C7.99996 2.79395 6.8831 3.90778 5.52196 5.26893ZM5.52075 9.02524L3.04456 11.5014L3.39709 11.8534L3.74902 12.2059L7.99996 7.95494L12.2509 12.2059L12.6028 11.8534L12.9554 11.5014L10.4792 9.02524C9.11742 7.66348 7.99996 6.54905 7.99996 6.54905C7.99996 6.54905 6.8825 7.66348 5.52075 9.02524Z"
    fill="#212121"
  />
</svg>
