<svg
  viewBox="0 0 20 20"
  fill="none"
  xmlns="http://www.w3.org/2000/svg"
>
  <path
    d="M9.63342 2.0082C8.27817 2.07774 7.03705 2.45189 5.89495 3.13443C4.76796 3.8079 3.80727 4.7686 3.1338 5.89558C2.53894 6.89029 2.17764 7.96436 2.04914 9.12007C2.01286 9.44131 2.00757 9.56149 2.00757 10.0006C2.00757 10.5033 2.02117 10.718 2.08315 11.1495C2.35904 13.0921 3.36055 14.8797 4.88512 16.1511C6.13909 17.1957 7.68708 17.8321 9.31218 17.9704C9.6765 18.0014 10.2615 18.0059 10.5934 17.9787C11.3983 17.9145 12.1285 17.752 12.8572 17.4746C14.5208 16.8404 15.9501 15.6393 16.8662 14.1057C17.5125 13.0241 17.8745 11.8782 17.9796 10.5827C17.9985 10.3499 17.9985 9.65144 17.9796 9.41863C17.9131 8.59626 17.7521 7.87442 17.4739 7.1435C16.839 5.4791 15.6387 4.05053 14.1051 3.13443C13.0272 2.49044 11.8753 2.12536 10.5934 2.02181C10.4505 2.01047 9.77779 2.0014 9.63342 2.0082Z"
    fill="#212121"
  />
</svg>
