<svg
  viewBox="0 0 24 24"
  fill="none"
  xmlns="http://www.w3.org/2000/svg"
>
  <path
    d="M11.5374 2.011C10.8218 2.05091 10.2068 2.14252 9.56284 2.30397C6.73835 3.01327 4.36103 4.92166 3.05672 7.52937C2.53337 8.57427 2.19323 9.7271 2.06352 10.8854C2.01545 11.3208 2.01001 11.4432 2.01001 12.001C2.01001 12.5588 2.01545 12.6813 2.06352 13.1167C2.19232 14.2731 2.53337 15.426 3.054 16.4681C4.57146 19.5013 7.52021 21.5611 10.8844 21.9366C11.3179 21.9856 11.4422 21.991 12 21.991C12.5579 21.991 12.6803 21.9856 13.1157 21.9375C14.274 21.8087 15.4268 21.4668 16.4717 20.9443C19.5012 19.4287 21.5601 16.479 21.9356 13.1167C21.9846 12.6831 21.9901 12.5588 21.9901 12.001C21.9901 11.4432 21.9846 11.3189 21.9356 10.8854C21.5211 7.16656 19.0567 3.98923 15.5538 2.65499C14.6558 2.31304 13.737 2.10896 12.7302 2.02733C12.5597 2.01372 11.7025 2.00193 11.5374 2.011ZM12.4626 3.01236C15.1864 3.16112 17.6635 4.49989 19.2662 6.69037C20.2295 8.00556 20.8218 9.58107 20.9651 11.2119C20.9887 11.4795 20.9978 11.6935 20.9978 12.001C20.9978 12.6278 20.9452 13.1602 20.8254 13.7607C20.4218 15.7743 19.3579 17.5729 17.7869 18.8944C16.3819 20.0754 14.6223 20.8056 12.7891 20.9661C12.3066 21.0087 11.7388 21.0105 11.2608 20.9715C8.76919 20.7657 6.4599 19.5221 4.91976 17.5566C4.13337 16.5525 3.57191 15.4033 3.26534 14.1688C3.08665 13.4486 3.0023 12.7539 3.0023 12.001C3.0023 11.3552 3.06126 10.7765 3.19187 10.1552C3.71523 7.65 5.28711 5.4822 7.5057 4.20329C8.72475 3.50034 10.1016 3.09218 11.5148 3.01327C11.7052 3.00239 12.2721 3.00239 12.4626 3.01236Z"
    fill="#212121"
  />
</svg>
