<svg
  viewBox="0 0 24 24"
  fill="none"
  xmlns="http://www.w3.org/2000/svg"
>
  <path
    d="M11.5374 2.011C10.8217 2.05091 10.2068 2.14252 9.56278 2.30397C6.73829 3.01327 4.36097 4.92166 3.05666 7.52937C2.5333 8.57427 2.19317 9.7271 2.06346 10.8854C2.01539 11.3208 2.00995 11.4432 2.00995 12.001C2.00995 12.5588 2.01539 12.6813 2.06346 13.1167C2.19226 14.2731 2.5333 15.426 3.05394 16.4681C4.5714 19.5013 7.52015 21.5611 10.8843 21.9366C11.3179 21.9856 11.4421 21.991 12 21.991C12.5578 21.991 12.6802 21.9856 13.1156 21.9375C14.2739 21.8087 15.4267 21.4668 16.4716 20.9443C19.5011 19.4287 21.5601 16.479 21.9356 13.1167C21.9846 12.6831 21.99 12.5588 21.99 12.001C21.99 11.4432 21.9846 11.3189 21.9356 10.8854C21.5211 7.16656 19.0567 3.98923 15.5537 2.65499C14.6558 2.31304 13.7369 2.10896 12.7301 2.02733C12.5596 2.01372 11.7025 2.00193 11.5374 2.011ZM12.4626 3.01236C15.1864 3.16112 17.6635 4.49989 19.2662 6.69037C20.2294 8.00556 20.8217 9.58107 20.9651 11.2119C20.9886 11.4795 20.9977 11.6935 20.9977 12.001C20.9977 12.6278 20.9451 13.1602 20.8254 13.7607C20.4217 15.7743 19.3578 17.5729 17.7868 18.8944C16.3818 20.0754 14.6222 20.8056 12.7891 20.9661C12.3065 21.0087 11.7387 21.0105 11.2607 20.9715C8.76913 20.7657 6.45984 19.5221 4.9197 17.5566C4.1333 16.5525 3.57185 15.4033 3.26528 14.1688C3.08659 13.4486 3.00224 12.7539 3.00224 12.001C3.00224 11.3552 3.0612 10.7765 3.19181 10.1552C3.71516 7.65 5.28705 5.4822 7.50564 4.20329C8.72469 3.50034 10.1016 3.09218 11.5147 3.01327C11.7052 3.00239 12.2721 3.00239 12.4626 3.01236Z"
    fill="#212121"
  />
</svg>
