<svg
  viewBox="0 0 24 24"
  fill="none"
  xmlns="http://www.w3.org/2000/svg"
>
  <path
    d="M11.5284 2.00932C10.4925 2.06737 9.57464 2.24696 8.65763 2.57258C5.95287 3.53312 3.78597 5.61657 2.71387 8.28505C2.64674 8.45195 2.50888 8.83108 2.48711 8.90637C2.48257 8.9236 2.4599 8.99798 2.43631 9.07235C2.2286 9.73721 2.08983 10.4801 2.02543 11.2737C2.00275 11.5549 2.00275 12.4438 2.02543 12.725C2.08983 13.5186 2.2286 14.2615 2.43631 14.9263C2.4599 15.0007 2.48257 15.0751 2.48711 15.0923C2.50888 15.1676 2.64674 15.5467 2.71387 15.7136C3.5701 17.8451 5.12747 19.6139 7.13835 20.7386C8.2803 21.378 9.56466 21.7889 10.8753 21.9349C11.3107 21.9839 11.4322 21.9903 12 21.9903C12.5678 21.9903 12.6876 21.9839 13.1247 21.9358C13.727 21.8687 14.3846 21.7327 14.927 21.5631C15.0014 21.5395 15.0758 21.5168 15.093 21.5123C15.1683 21.4905 15.5474 21.3526 15.7143 21.2855C17.2835 20.6551 18.6604 19.6447 19.7406 18.3295C20.0046 18.0084 20.3565 17.5095 20.5687 17.1558C21.3134 15.9168 21.7769 14.549 21.9356 13.1241C21.9846 12.6878 21.991 12.5671 21.991 11.9993C21.991 11.4315 21.9846 11.3109 21.9356 10.8746C21.6318 8.14265 20.2041 5.65285 17.991 3.9939C16.5678 2.92632 14.8862 2.25875 13.1247 2.06283C12.7211 2.01839 12.5851 2.01113 12.0726 2.00841C11.8059 2.0075 11.561 2.0075 11.5284 2.00932Z"
    fill="#212121"
  />
</svg>
