<svg
  viewBox="0 0 16 16"
  fill="none"
  xmlns="http://www.w3.org/2000/svg"
>
  <path
    d="M7.7823 1.00309C6.60195 1.04058 5.45607 1.37315 4.4414 1.9724C3.70671 2.40596 3.05607 2.97194 2.52455 3.63891C1.66287 4.7207 1.14042 6.0371 1.02493 7.41578C0.993482 7.79311 0.993482 8.2055 1.02493 8.58283C1.21419 10.8438 2.48645 12.8713 4.4414 14.0262C5.70883 14.7754 7.18184 15.1044 8.65304 14.9683C9.67436 14.8734 10.6709 14.5499 11.5586 14.0262C13.3817 12.9499 14.6201 11.1056 14.9261 9.00913C15.0016 8.49273 15.0186 7.93158 14.9744 7.41276C14.8112 5.48744 13.866 3.72236 12.3549 2.51964C11.3354 1.70815 10.091 1.19296 8.79817 1.04541C8.46922 1.00853 8.10338 0.992807 7.7823 1.00309ZM8.30837 2.00687C10.016 2.10059 11.5725 2.89031 12.653 4.21095C13.4047 5.12947 13.8727 6.2826 13.9767 7.47323C14.0063 7.80943 14.0063 8.19039 13.9767 8.52538C13.8195 10.3056 12.8786 11.9219 11.4074 12.9378C10.5566 13.5255 9.55645 13.8859 8.52606 13.976C8.18985 14.0057 7.8089 14.0057 7.47391 13.976C5.8219 13.8303 4.30233 13.0067 3.2798 11.703C2.56204 10.7881 2.12425 9.68154 2.02326 8.52538C1.99363 8.18918 1.99363 7.80943 2.02326 7.47323C2.17141 5.78132 3.03611 4.22425 4.39303 3.20475C5.34601 2.4888 6.48343 2.07399 7.67648 2.00747C7.80346 2.00021 8.18139 2.00021 8.30837 2.00687Z"
    fill="#212121"
  />
</svg>
