<svg
  viewBox="0 0 24 24"
  fill="none"
  xmlns="http://www.w3.org/2000/svg"
>
  <path
    d="M11.5283 2.00932C10.4925 2.06737 9.57458 2.24696 8.65757 2.57258C5.95281 3.53312 3.78591 5.61657 2.7138 8.28505C2.64668 8.45195 2.50882 8.83108 2.48705 8.90637C2.48251 8.9236 2.45984 8.99798 2.43625 9.07235C2.22854 9.73721 2.08977 10.4801 2.02537 11.2737C2.00269 11.5549 2.00269 12.4438 2.02537 12.725C2.08977 13.5186 2.22854 14.2615 2.43625 14.9263C2.45984 15.0007 2.48251 15.0751 2.48705 15.0923C2.50882 15.1676 2.64668 15.5467 2.7138 15.7136C3.57004 17.8451 5.12741 19.6139 7.13829 20.7386C8.28024 21.378 9.5646 21.7889 10.8753 21.9349C11.3106 21.9839 11.4322 21.9903 12 21.9903C12.5678 21.9903 12.6875 21.9839 13.1247 21.9358C13.727 21.8687 14.3846 21.7327 14.927 21.5631C15.0013 21.5395 15.0757 21.5168 15.0929 21.5123C15.1682 21.4905 15.5474 21.3526 15.7143 21.2855C17.2834 20.6551 18.6603 19.6447 19.7406 18.3295C20.0045 18.0084 20.3564 17.5095 20.5687 17.1558C21.3134 15.9168 21.7768 14.549 21.9356 13.1241C21.9846 12.6878 21.9909 12.5671 21.9909 11.9993C21.9909 11.4315 21.9846 11.3109 21.9356 10.8746C21.6317 8.14265 20.2041 5.65285 17.9909 3.9939C16.5678 2.92632 14.8861 2.25875 13.1247 2.06283C12.7211 2.01839 12.585 2.01113 12.0725 2.00841C11.8059 2.0075 11.561 2.0075 11.5283 2.00932Z"
    fill="#212121"
  />
</svg>
