<svg
  viewBox="0 0 20 20"
  fill="none"
  xmlns="http://www.w3.org/2000/svg"
>
  <path
    d="M9.63715 2.0082C8.86542 2.05204 8.19347 2.17525 7.51319 2.39823C6.33557 2.78447 5.27888 3.42695 4.39604 4.29392C3.49505 5.17903 2.82763 6.24252 2.42174 7.44207C2.20102 8.09362 2.0748 8.72854 2.0166 9.4791C2.00375 9.6469 2.00375 10.3544 2.0166 10.5222C2.05288 10.9908 2.11183 11.3914 2.20405 11.7898C2.58878 13.4625 3.49354 14.9576 4.79588 16.0755C5.89566 17.0188 7.24033 17.6477 8.67344 17.888C9.17608 17.9727 9.57442 18.0022 10.1096 17.9954C10.5208 17.9901 10.7551 17.9727 11.1375 17.9175C13.0899 17.6393 14.8753 16.6424 16.1443 15.1216C16.7279 14.4232 17.1927 13.6182 17.5094 12.7565C17.7316 12.1518 17.8783 11.5252 17.9508 10.8737C17.9871 10.5532 17.9924 10.4315 17.9924 10.0006C17.9924 9.56981 17.9871 9.44811 17.9508 9.12763C17.7248 7.09815 16.7498 5.25234 15.204 3.92581C14.3598 3.2017 13.356 2.65446 12.2902 2.33624C11.7339 2.17071 11.1965 2.07169 10.582 2.02181C10.4429 2.01047 9.76867 2.0014 9.63715 2.0082ZM10.4799 3.01576C11.2086 3.07472 11.8284 3.21002 12.4603 3.44736C13.2607 3.74894 13.9622 4.1692 14.6296 4.7497C14.7657 4.86837 15.1322 5.23496 15.2509 5.37101C16.1829 6.44282 16.7513 7.6915 16.9387 9.07472C16.9826 9.40352 16.9954 9.60609 16.9954 10.0006C16.9954 10.3362 16.9901 10.4481 16.9644 10.7036C16.8382 11.9651 16.3605 13.1889 15.6009 14.1994C15.3855 14.4852 15.2192 14.6764 14.9471 14.9477C14.6757 15.2198 14.4845 15.3861 14.1988 15.6016C13.2683 16.3007 12.1526 16.7641 11.0037 16.9273C10.6644 16.9757 10.4641 16.9916 10.1096 16.9976C9.39604 17.009 8.74071 16.922 8.05363 16.724C6.3915 16.2448 4.96142 15.1586 4.04607 13.6817C3.5457 12.8744 3.20632 11.9402 3.07328 11.0044C3.01811 10.6174 3.0045 10.4254 3.0045 10.0006C3.0045 9.57585 3.01811 9.38386 3.07328 8.99687C3.23579 7.85023 3.70065 6.7308 4.39906 5.80185C4.61448 5.51614 4.78077 5.32491 5.05288 5.05355C5.32423 4.78145 5.51546 4.61516 5.80118 4.39974C6.87601 3.59172 8.19422 3.10268 9.53133 3.01652C9.60012 3.01198 9.67495 3.00745 9.69762 3.00594C9.78077 3.00064 10.3839 3.0082 10.4799 3.01576Z"
    fill="#212121"
  />
</svg>
