<svg
  viewBox="0 0 16 16"
  fill="none"
  xmlns="http://www.w3.org/2000/svg"
>
  <path
    d="M7.85186 1.00321C6.27182 1.03345 4.73531 1.60851 3.51928 2.62438C2.8505 3.1825 2.296 3.85371 1.8691 4.62105C1.7409 4.85083 1.59034 5.17192 1.48452 5.4404C1.08542 6.45083 0.928809 7.56043 1.031 8.66036C1.16161 10.062 1.71853 11.399 2.62314 12.482C3.25262 13.236 4.02662 13.8461 4.90099 14.2779C6.06683 14.8536 7.35602 15.0912 8.65912 14.9703C10.0608 14.8396 11.3977 14.2827 12.4807 13.3781C13.2348 12.7486 13.8449 11.9746 14.2767 11.1003C14.6673 10.3087 14.9019 9.4658 14.9751 8.59082C15.0059 8.21228 15.0059 7.78054 14.9745 7.40866C14.8608 6.06686 14.3655 4.79278 13.5444 3.72914C12.9578 2.96965 12.2268 2.34139 11.3802 1.87034C11.2526 1.79898 10.9599 1.65386 10.8269 1.59581C10.0699 1.26444 9.3019 1.07578 8.47166 1.01712C8.37371 1.00987 8.02299 0.998377 7.96675 1.00019C7.9468 1.0008 7.8954 1.00201 7.85186 1.00321Z"
    fill="#212121"
  />
</svg>
